<svg width="26" height="27" viewBox="0 0 26 27" fill="none" xmlns="http://www.w3.org/2000/svg">
<g clip-path="url(#clip0_19054_11917)">
<path d="M12.9988 25.9978C20.1766 25.9978 26 20.1744 26 12.9988C26 5.82342 20.1766 0 12.9988 0C5.82342 0 0 5.82342 0 12.9988C0 20.1744 5.82342 25.9978 12.9988 25.9978ZM12.9988 23.4371C7.22704 23.4371 2.56059 18.7707 2.56059 12.9988C2.56059 7.22704 7.22704 2.56059 12.9988 2.56059C18.7707 2.56059 23.4394 7.22704 23.4394 12.9988C23.4394 18.7707 18.7707 23.4371 12.9988 23.4371Z" fill="white" fill-opacity="0.85"/>
<path d="M7.17798 12.9987C7.17798 13.681 7.6602 14.1575 8.35861 14.1575H11.8092V17.6183C11.8092 18.3065 12.296 18.799 12.9782 18.799C13.6731 18.799 14.168 18.3168 14.168 17.6183V14.1575H17.6311C18.3192 14.1575 18.8095 13.681 18.8095 12.9987C18.8095 12.3038 18.3192 11.809 17.6311 11.809H14.168V8.35843C14.168 7.65775 13.6731 7.16748 12.9782 7.16748C12.296 7.16748 11.8092 7.65775 11.8092 8.35843V11.809H8.35861C7.6602 11.809 7.17798 12.3038 7.17798 12.9987Z" fill="white" fill-opacity="0.85"/>
</g>
<defs>
<clipPath id="clip0_19054_11917">
<rect width="26" height="26.0103" fill="white"/>
</clipPath>
</defs>
</svg>
