<svg width="30" height="23" viewBox="0 0 30 23" fill="none" xmlns="http://www.w3.org/2000/svg">
<g clip-path="url(#clip0_18638_9569)">
<path d="M26.2477 9.13237C28.5735 10.104 30 12.3114 30 14.8117C30 18.1558 27.1224 20.8361 23.4669 20.8361H7.22677C3.12019 20.8361 0 17.8589 0 14.2895C0 11.3603 1.66577 8.94331 4.35177 8.46976C4.46132 5.16204 7.59655 2.94453 10.5684 3.74368C12.0424 1.6185 14.3807 0 17.5152 0C22.4305 0 26.2627 3.82637 26.2477 9.13237ZM18.0462 6.89329L14.1089 13.4328L12.1106 10.8747C11.8767 10.5651 11.5743 10.3985 11.209 10.3985C10.6335 10.3985 10.1681 10.8552 10.1681 11.4495C10.1681 11.7152 10.2663 11.9607 10.4638 12.2146L13.0967 15.4781C13.3914 15.8507 13.7321 16.0341 14.1496 16.0341C14.5608 16.0341 14.9194 15.8293 15.1576 15.46L19.7618 8.05651C19.8963 7.84958 20.0385 7.5731 20.0385 7.29873C20.0385 6.73754 19.5474 6.31612 18.959 6.31612C18.594 6.31612 18.2618 6.52425 18.0462 6.89329Z" fill="white"/>
</g>
<defs>
<clipPath id="clip0_18638_9569">
<rect width="30" height="23" fill="white"/>
</clipPath>
</defs>
</svg>
