<svg width="81" height="79" viewBox="0 0 81 79" fill="none" xmlns="http://www.w3.org/2000/svg">
<g clip-path="url(#clip0_18637_9510)">
<path d="M52.0152 8.26449L42.6946 33.1918H60.4311C61.7884 33.1918 62.7729 34.1484 62.7729 35.3974C62.7729 36.1302 62.4918 36.7715 61.9382 37.4432L60.6058 39.082C49.7122 39.2282 40.8002 48.1767 40.8002 59.0155C40.8002 60.3613 40.936 61.6774 41.1983 62.9493L33.3462 72.6059C31.1576 75.2984 27.6947 73.532 28.9602 70.2177L38.281 45.2904H20.5444C19.1871 45.2904 18.2026 44.359 18.2026 43.0902C18.2026 42.3826 18.4836 41.7359 19.0371 41.0447L47.6291 5.90123C49.818 3.18933 53.2861 4.95567 52.0152 8.26449Z" fill="white"/>
<path d="M76.6521 59.0157C76.6521 67.5774 69.4478 74.6787 60.8973 74.6787C52.277 74.6787 45.1426 67.6327 45.1426 59.0157C45.1426 50.454 52.277 43.3638 60.8973 43.3638C69.5483 43.3638 76.6521 50.454 76.6521 59.0157ZM66.1075 52.1157L58.8751 62.0592L55.3248 58.2186C54.944 57.7879 54.3936 57.4946 53.6901 57.4946C52.514 57.4946 51.5166 58.3653 51.5166 59.6685C51.5166 60.1877 51.7358 60.779 52.1222 61.2239L57.2459 66.8059C57.6989 67.2865 58.4134 67.505 58.986 67.505C59.731 67.505 60.4204 67.1982 60.8012 66.7176L69.6708 54.5745C69.9738 54.1571 70.1268 53.7014 70.1268 53.3035C70.1268 52.0964 69.1093 51.1543 67.9392 51.1543C67.1635 51.1543 66.5048 51.5523 66.1075 52.1157Z" fill="white"/>
</g>
<defs>
<clipPath id="clip0_18637_9510">
<rect width="81" height="79" fill="white"/>
</clipPath>
</defs>
</svg>
