<svg width="96" height="97" viewBox="0 0 96 97" fill="none" xmlns="http://www.w3.org/2000/svg">
<g clip-path="url(#clip0_19174_10819)">
<path d="M96 48.0423C96 74.5362 74.4982 96.038 47.9957 96.038C21.54 96.038 0 74.5362 0 48.0423C0 21.5864 21.54 0.0463867 47.9957 0.0463867C74.4982 0.0463867 96 21.5864 96 48.0423ZM53.9657 16.9027L27.9557 49.3069C27.4279 49.8896 27.1324 50.6201 27.1324 51.2742C27.1324 52.5661 28.1453 53.5323 29.4919 53.5323H45.3782L36.89 76.1171C35.6615 79.3591 39.1694 81.1659 41.3181 78.5611L67.3362 46.1949C67.8557 45.5742 68.1511 44.8437 68.1511 44.1893C68.1511 42.8977 67.1382 41.9312 65.8 41.9312H49.9138L58.3938 19.3467C59.6223 16.1045 56.1226 14.2979 53.9657 16.9027Z" fill="white"/>
</g>
<defs>
<clipPath id="clip0_19174_10819">
<rect width="96" height="96.0381" fill="white"/>
</clipPath>
</defs>
</svg>
