<svg width="96" height="94" viewBox="0 0 96 94" fill="none" xmlns="http://www.w3.org/2000/svg">
<path d="M61.6473 9.82718L50.6007 39.4672H71.6217C73.2304 39.4672 74.3972 40.6046 74.3972 42.0898C74.3972 42.9611 74.0641 43.7236 73.408 44.5223L71.8288 46.471C58.9179 46.6448 48.3555 57.285 48.3555 70.173C48.3555 71.7732 48.5165 73.3382 48.8274 74.8505L39.5212 86.3328C36.9273 89.5343 32.823 87.434 34.323 83.4931L45.3698 53.8531H24.3487C22.74 53.8531 21.5732 52.7456 21.5732 51.2369C21.5732 50.3956 21.9063 49.6265 22.5622 48.8047L56.4491 7.01714C59.0433 3.79253 63.1537 5.89281 61.6473 9.82718Z" fill="white"/>
<path d="M90.8468 70.1731C90.8468 80.3534 82.3084 88.7972 72.1745 88.7972C61.9579 88.7972 53.5022 80.4191 53.5022 70.1731C53.5022 59.9927 61.9579 51.562 72.1745 51.562C82.4276 51.562 90.8468 59.9927 90.8468 70.1731ZM78.3496 61.9686L69.7777 73.7919L65.57 69.2253C65.1187 68.7131 64.4663 68.3644 63.6326 68.3644C62.2387 68.3644 61.0566 69.3996 61.0566 70.9493C61.0566 71.5666 61.3164 72.2697 61.7743 72.7987L67.8469 79.436C68.3838 80.0075 69.2306 80.2673 69.9093 80.2673C70.7922 80.2673 71.6093 79.9025 72.0606 79.3311L82.5727 64.8923C82.9318 64.3959 83.1131 63.8541 83.1131 63.3809C83.1131 61.9456 81.9072 60.8254 80.5204 60.8254C79.6011 60.8254 78.8204 61.2986 78.3496 61.9686Z" fill="white"/>
</svg>
