<svg width="96" height="92" viewBox="0 0 96 92" fill="none" xmlns="http://www.w3.org/2000/svg">
<g clip-path="url(#clip0_19119_72660)">
<path d="M61.101 10.352L50.4966 38.8011H70.6763C72.2205 38.8011 73.3406 39.8929 73.3406 41.3184C73.3406 42.1546 73.0208 42.8863 72.391 43.6531L70.1056 46.4726C67.2498 46.9054 64.6368 48.6109 63.1323 51.3355L56.3662 63.4219L39.8605 83.7838C37.3704 86.8567 33.4304 84.8407 34.8703 81.0582L45.475 52.6091H25.2953C23.7509 52.6091 22.6309 51.546 22.6309 50.098C22.6309 49.2904 22.9506 48.5523 23.5803 47.7635L56.1109 7.65484C58.6012 4.55979 62.5471 6.57571 61.101 10.352Z" fill="white"/>
<path d="M75.6846 53.6636L90.4421 79.9977C90.9074 80.7581 91.1164 81.5247 91.1164 82.3261C91.1164 84.9704 89.2399 87.1093 86.3247 87.1093H56.8095C53.8945 87.1093 52.0464 84.9704 52.0464 82.3261C52.0464 81.5247 52.2616 80.7581 52.6983 79.9977L67.4275 53.6636C68.3134 52.0485 69.9595 51.2407 71.5734 51.2407C73.1812 51.2407 74.7637 52.036 75.6846 53.6636ZM68.4694 78.9512C68.4694 80.6199 69.8556 81.9608 71.5608 81.9608C73.3072 81.9608 74.6586 80.6199 74.6586 78.9512C74.6872 77.2761 73.2884 75.9255 71.5608 75.9255C69.8905 75.9255 68.4694 77.2415 68.4694 78.9512ZM68.9953 62.0107L69.2804 71.4729C69.3213 72.7311 70.2514 73.6458 71.5608 73.6458C72.8766 73.6458 73.8129 72.7311 73.854 71.4729L74.1674 62.0107C74.2085 60.5252 73.1267 59.4657 71.5608 59.4657C70.0299 59.4657 68.948 60.5316 68.9953 62.0107Z" fill="white"/>
</g>
<defs>
<clipPath id="clip0_19119_72660">
<rect width="96" height="92" fill="white"/>
</clipPath>
</defs>
</svg>
