<svg width="80" height="80" viewBox="0 0 80 80" fill="none" xmlns="http://www.w3.org/2000/svg">
<g clip-path="url(#clip0_19056_11927)">
<path d="M80 39.9806C80 62.0186 62.0818 79.9614 39.9964 79.9614C17.95 79.9614 0 62.0186 0 39.9806C0 17.9111 17.95 0 39.9964 0C62.0818 0 80 17.9111 80 39.9806ZM51.5646 24.7263L35.5538 50.3515L28.0907 40.8795C27.095 39.6022 26.1664 39.1911 24.939 39.1911C22.9735 39.1911 21.4092 40.7904 21.4092 42.7621C21.4092 43.7429 21.7647 44.6362 22.457 45.5217L31.9457 57.0596C33.0292 58.4632 34.2248 59.0955 35.6807 59.0955C37.1298 59.0955 38.3851 58.3858 39.2748 57.0319L57.3897 28.822C57.931 27.9327 58.3994 26.9867 58.3994 26.0933C58.3994 24.0652 56.6239 22.709 54.6901 22.709C53.5022 22.709 52.4049 23.4049 51.5646 24.7263Z" fill="white"/>
</g>
<defs>
<clipPath id="clip0_19056_11927">
<rect width="80" height="80" fill="white"/>
</clipPath>
</defs>
</svg>
