<svg width="26" height="26" viewBox="0 0 26 26" fill="none" xmlns="http://www.w3.org/2000/svg">
<g clip-path="url(#clip0_19054_11906)">
<path d="M12.9988 25.9875C20.1766 25.9875 26 20.1664 26 12.9937C26 5.82111 20.1766 0 12.9988 0C5.82342 0 0 5.82111 0 12.9937C0 20.1664 5.82342 25.9875 12.9988 25.9875ZM12.9988 23.4278C7.22704 23.4278 2.56059 18.7633 2.56059 12.9937C2.56059 7.22418 7.22704 2.55958 12.9988 2.55958C18.7707 2.55958 23.4394 7.22418 23.4394 12.9937C23.4394 18.7633 18.7707 23.4278 12.9988 23.4278Z" fill="white" fill-opacity="0.85"/>
<path d="M11.6373 18.9759C12.0888 18.9759 12.4819 18.7519 12.7495 18.3371L18.3781 9.54851C18.5369 9.27655 18.6892 8.98398 18.6892 8.70042C18.6892 8.07099 18.1315 7.65186 17.5395 7.65186C17.1705 7.65186 16.8288 7.87124 16.5625 8.28584L11.5938 16.265L9.25509 13.2837C8.94634 12.8858 8.6491 12.7625 8.26953 12.7625C7.66273 12.7625 7.17371 13.2549 7.17371 13.8717C7.17371 14.1756 7.29149 14.4489 7.49938 14.7218L10.4748 18.3462C10.812 18.7748 11.1812 18.9759 11.6373 18.9759Z" fill="white" fill-opacity="0.85"/>
</g>
<defs>
<clipPath id="clip0_19054_11906">
<rect width="26" height="26" fill="white"/>
</clipPath>
</defs>
</svg>
