<svg width="27" height="27" viewBox="0 0 27 27" fill="none" xmlns="http://www.w3.org/2000/svg">
<path d="M6.8664 25H21.1336C23.6872 25 25 23.699 25 21.1819V6.82774C25 4.31276 23.6872 3 21.1336 3H6.8664C4.32243 3 3 4.31276 3 6.82774V21.1819C3 23.699 4.32243 25 6.8664 25ZM7.00029 22.6908C5.90439 22.6908 5.30917 22.1255 5.30917 20.9804V7.0314C5.30917 5.88623 5.90439 5.31129 7.00029 5.31129H20.9997C22.0859 5.31129 22.6908 5.88623 22.6908 7.0314V20.9804C22.6908 22.1255 22.0859 22.6908 20.9997 22.6908H7.00029Z" fill="white" fill-opacity="0.85"/>
<path d="M13.9892 18.6422C16.0846 18.6422 18 17.7247 18 15.6735C18 13.9175 16.5547 13.2476 14.8417 12.8693L13.6784 12.6087C12.588 12.3707 11.7627 11.9717 11.7627 11.1087C11.7627 10.1052 12.8892 9.64452 13.9959 9.64452C15.101 9.64452 15.8969 10.0884 16.2299 10.9822C16.39 11.3499 16.6537 11.5421 17.0287 11.5421C17.4068 11.5421 17.7897 11.3318 17.7897 10.8826C17.7897 9.39219 15.8042 8.34705 13.9892 8.34705C11.9809 8.34705 10.1431 9.38681 10.1431 11.2317C10.1431 12.9762 11.6564 13.6658 13.21 14.0049L14.3676 14.2633C15.4441 14.4983 16.3949 14.8347 16.3949 15.8167C16.3949 16.9682 15.2228 17.3448 14.0159 17.3448C12.7985 17.3448 11.9644 16.9755 11.552 15.9687C11.374 15.5948 11.1415 15.4195 10.7743 15.4195C10.3382 15.4195 10 15.6786 10 16.116C10 16.2582 10.0333 16.3983 10.0978 16.5575C10.5723 17.9853 12.3054 18.6422 13.9892 18.6422ZM13.989 20C14.1986 20 14.3758 19.8309 14.3758 19.631V7.37114C14.3758 7.16908 14.1986 7 13.989 7C13.7772 7 13.6022 7.16908 13.6022 7.37114V19.631C13.6022 19.8309 13.7772 20 13.989 20Z" fill="white" fill-opacity="0.85"/>
</svg>
