<svg width="75" height="75" viewBox="0 0 75 75" fill="none" xmlns="http://www.w3.org/2000/svg">
<path d="M60.5133 14.332C54.4805 8.32031 46.8211 4.83047 37.4016 4.6875C28.8633 4.6875 20.7281 8.10937 14.4867 14.332C7.98984 20.8055 4.6875 29.5969 4.6875 37.5C4.6875 58.0453 16.9523 70.3125 37.5 70.3125C58.0477 70.3125 70.3125 58.0453 70.3125 37.5C70.3125 28.5281 66.293 20.0906 60.5133 14.332ZM37.5 65.625C19.3641 65.625 9.375 55.6359 9.375 37.5C9.375 35.4047 9.65625 33.3211 10.1461 31.2797C12.8461 26.6695 16.8328 23.8992 21.4266 23.4914C25.9852 23.0906 30.6516 25.0547 33.5883 28.6289C35.5336 30.9914 39.4617 30.9937 41.407 28.6266C42.8735 26.8577 44.7441 25.4677 46.8609 24.574C48.9776 23.6802 51.2783 23.3089 53.5688 23.4914C58.1648 23.8992 62.1492 26.6695 64.8516 31.2797C65.3438 33.3211 65.625 35.407 65.625 37.5C65.625 55.6359 55.6359 65.625 37.5 65.625Z" fill="white"/>
<path d="M25.7812 35.1562C25.7812 37.7414 23.6789 39.8438 21.0938 39.8438C18.5086 39.8438 16.4062 37.7414 16.4062 35.1562C16.4062 32.5711 18.5086 30.4688 21.0938 30.4688C23.6789 30.4688 25.7812 32.5711 25.7812 35.1562ZM58.5938 35.1562C58.5938 37.7414 56.4914 39.8438 53.9062 39.8438C51.3211 39.8438 49.2188 37.7414 49.2188 35.1562C49.2188 32.5711 51.3211 30.4688 53.9062 30.4688C56.4914 30.4688 58.5938 32.5711 58.5938 35.1562ZM45.832 42.5812C40.3805 38.9461 34.6219 38.9461 29.1703 42.5812C28.7742 42.8449 28.4678 43.223 28.2919 43.6651C28.116 44.1073 28.0791 44.5926 28.1859 45.0563C29.3906 50.3086 30.4852 53.1211 35.9391 57.9961C36.3652 58.3803 36.9181 58.594 37.4919 58.5961C38.0657 58.5983 38.6202 58.3888 39.0492 58.0078C44.4937 53.2055 45.5977 50.3719 46.8141 45.0563C46.9208 44.5928 46.8841 44.1078 46.7086 43.6658C46.5332 43.2237 46.2275 42.8454 45.832 42.5812Z" fill="white"/>
</svg>
