<svg width="26" height="25" viewBox="0 0 26 25" fill="none" xmlns="http://www.w3.org/2000/svg">
<g clip-path="url(#clip0_19057_11945)">
<path d="M2.4578 23.6393C3.42924 24.6139 4.60319 24.5472 5.57937 23.4188L15.4028 12.1228L12.1903 8.89994L0.905356 18.7297C-0.227848 19.7175 -0.285888 20.8868 0.6874 21.8717L2.4578 23.6393ZM21.0028 14.5163C21.5138 15.0065 22.1162 15.0393 22.5993 14.5529L25.6708 11.4865C26.1351 11.0188 26.1025 10.3891 25.6091 9.89516L24.883 9.15641C24.4464 8.72502 24.154 8.6594 23.6866 8.69591L22.5604 8.82932L21.8219 8.09036L22.1478 6.72014C22.3301 5.95577 22.0495 5.1761 21.2613 4.38529L19.2132 2.3457C16.2857 -0.580913 10.8447 -0.893524 7.84867 2.11486C7.31582 2.65129 7.38249 3.27382 7.7145 3.675C7.98552 3.97749 8.43667 4.14226 8.91536 4.00082C10.8395 3.43176 12.5508 3.31077 13.9811 4.1532L13.2517 6.06953C12.8935 6.99352 13.0732 7.66496 13.6771 8.28115L15.896 10.509C16.4086 11.0234 16.9271 11.1844 17.6608 11.0353L19.1972 10.7169L19.9291 11.4559L19.814 12.5895C19.772 13.0716 19.828 13.3754 20.2785 13.8001L21.0028 14.5163Z" fill="white"/>
</g>
<defs>
<clipPath id="clip0_19057_11945">
<rect width="26" height="24.5393" fill="white"/>
</clipPath>
</defs>
</svg>
