<?xml version="1.0" encoding="UTF-8"?>
<!--Generator: Apple Native CoreSVG 326-->
<!DOCTYPE svg
PUBLIC "-//W3C//DTD SVG 1.1//EN"
       "http://www.w3.org/Graphics/SVG/1.1/DTD/svg11.dtd">
<svg width="75" height="75" version="1.1" xmlns="http://www.w3.org/2000/svg" xmlns:xlink="http://www.w3.org/1999/xlink" viewBox="0 0 504.419 504.619">
 <g>
  <rect height="504.619" opacity="0" width="504.419" x="0" y="0"/>
  <path d="M504.419 252.432C504.419 391.64 391.44 504.619 252.187 504.619C113.179 504.619 0 391.64 0 252.432C0 113.423 113.179 0.244141 252.187 0.244141C391.44 0.244141 504.419 113.423 504.419 252.432ZM182.593 196.308L182.593 224.907C168.472 226.323 161.411 235.044 161.411 252.558L161.411 351.494C161.411 370.82 169.975 379.585 187.793 379.585L316.67 379.585C334.443 379.585 343.008 370.82 343.008 351.494L343.008 252.558C343.008 235.044 335.903 226.323 321.87 224.951L321.87 196.308C321.87 149.57 293.73 118.301 252.187 118.301C210.732 118.301 182.593 149.57 182.593 196.308ZM291.987 193.642L291.987 224.399L212.431 224.399L212.431 193.642C212.431 165.84 228.335 147.207 252.143 147.207C275.996 147.207 291.987 165.796 291.987 193.642Z" fill="white" fill-opacity="0.85"/>
 </g>
</svg>
