<svg width="98" height="22" viewBox="0 0 98 22" fill="none" xmlns="http://www.w3.org/2000/svg">
<path d="M35.0669 5.69337H29.6793C29.0497 5.69337 28.6061 5.81077 28.3485 6.04558C28.1052 6.28039 27.9836 6.68785 27.9836 7.26796V9.31906H33.5859L33.3712 11.8881H27.9836V17.8757H25V6.12845C25 5.03729 25.2433 4.26381 25.7298 3.80801C26.2306 3.35221 27.0821 3.12431 28.2841 3.12431H35.0669V5.69337Z" fill="white"/>
<path d="M49.2302 17.8757H45.7744L42.7908 12.4061H40.6444V17.8757H37.6608V6.2942C37.6608 5.18923 37.9255 4.38812 38.455 3.89088C38.9844 3.37984 39.8717 3.12431 41.1166 3.12431H43.6494C45.1663 3.12431 46.3683 3.57321 47.2555 4.471C48.157 5.35497 48.6078 6.48066 48.6078 7.84807C48.6078 8.84254 48.3359 9.7058 47.7921 10.4378C47.2626 11.1561 46.6044 11.6533 45.8174 11.9296L49.2302 17.8757ZM43.4562 10.0028C44.0859 10.0028 44.601 9.79558 45.0017 9.38122C45.4167 8.95304 45.6242 8.42818 45.6242 7.80663C45.6242 7.17127 45.4238 6.66022 45.0232 6.27348C44.6368 5.88674 44.1145 5.69337 43.4562 5.69337H41.9752C41.088 5.69337 40.6444 6.12845 40.6444 6.99862V10.0028H43.4562Z" fill="white"/>
<path d="M54.6886 17.8757H51.705V3.12431H54.6886V17.8757Z" fill="white"/>
<path d="M57.3006 10.9351V9.11188C57.3006 7.19199 57.8229 5.69337 58.8675 4.61602C59.9121 3.53867 61.3574 3 63.2034 3C65.0494 3 66.5304 3.53867 67.6466 4.61602C68.4336 5.37569 68.8271 6.51519 68.8271 8.03453H66.0367C66.0367 6.39088 65.1281 5.56906 63.3107 5.56906C62.7669 5.56906 62.3019 5.67265 61.9155 5.87983C61.5435 6.07321 61.2644 6.30111 61.0784 6.56354C60.8924 6.82597 60.7493 7.21271 60.6491 7.72376C60.5489 8.23481 60.4917 8.66298 60.4774 9.00829C60.4631 9.35359 60.4559 9.8163 60.4559 10.3964C60.4559 10.9765 60.4559 11.3702 60.4559 11.5773C60.4702 11.7707 60.4917 12.0953 60.5203 12.5511C60.5632 12.9931 60.6205 13.3108 60.692 13.5041C60.7779 13.6975 60.8924 13.9461 61.0355 14.25C61.1929 14.5539 61.3861 14.768 61.615 14.8923C62.2017 15.2514 62.8671 15.4309 63.6112 15.4309C64.8562 15.4309 65.7362 14.9199 66.2514 13.8978V12.9033H64.4054V10.5H68.8057V14.9544C68.3621 15.9627 67.6609 16.7224 66.7021 17.2334C65.7434 17.7445 64.6558 18 63.4395 18C61.2787 18 59.7118 17.4199 58.7387 16.2597C57.78 15.0856 57.3006 13.3108 57.3006 10.9351Z" fill="white"/>
<path d="M74.8956 17.8757H71.912V3.12431H74.8956V17.8757Z" fill="white"/>
<path d="M89.9785 10.4378L90 12.0331C89.9428 13.0414 89.814 13.8909 89.6136 14.5815C89.4133 15.2721 89.0198 15.9006 88.4331 16.4669C87.46 17.4061 86.0433 17.8757 84.1831 17.8757C81.9937 17.8757 80.4912 17.5994 79.6755 17.047C78.8598 16.4807 78.452 15.4655 78.452 14.0014V3.12431H84.3977C86.1149 3.12431 87.46 3.59392 88.4331 4.53315C89.2201 5.29282 89.6852 6.21823 89.8283 7.30939C89.9284 8.08287 89.9785 9.12569 89.9785 10.4378ZM86.351 14.395C86.6229 14.0773 86.7946 13.6423 86.8662 13.0898C86.952 12.5235 86.9949 11.6464 86.9949 10.4586C86.9949 9.27072 86.952 8.41436 86.8662 7.8895C86.7946 7.35083 86.6229 6.92265 86.351 6.60497C85.8359 5.99724 85.0917 5.69337 84.1187 5.69337H81.4356V13.8564C81.4356 14.4088 81.6288 14.7887 82.0151 14.9959C82.4015 15.203 83.0884 15.3066 84.0758 15.3066C85.0774 15.3066 85.8359 15.0028 86.351 14.395Z" fill="white"/>
<path d="M17.7506 4.20406C15.9809 2.44062 13.7342 1.41694 10.9711 1.375C8.46656 1.375 6.08025 2.37875 4.24944 4.20406C2.34369 6.10294 1.375 8.68175 1.375 11C1.375 17.0266 4.97269 20.625 11 20.625C17.0273 20.625 20.625 17.0266 20.625 11C20.625 8.36825 19.4459 5.89325 17.7506 4.20406ZM11 19.25C5.68013 19.25 2.75 16.3199 2.75 11C2.75 10.3854 2.8325 9.77419 2.97619 9.17537C3.76819 7.82306 4.93763 7.01044 6.28513 6.89081C7.62231 6.77325 8.99113 7.34938 9.85256 8.39781C10.4232 9.09081 11.5754 9.0915 12.1461 8.39712C12.5762 7.87827 13.1249 7.47054 13.7459 7.20836C14.3668 6.94619 15.0416 6.83728 15.7135 6.89081C17.0617 7.01044 18.2304 7.82306 19.0231 9.17537C19.1675 9.77419 19.25 10.3861 19.25 11C19.25 16.3199 16.3199 19.25 11 19.25Z" fill="white"/>
<path d="M7.5625 10.3125C7.5625 11.0708 6.94581 11.6875 6.1875 11.6875C5.42919 11.6875 4.8125 11.0708 4.8125 10.3125C4.8125 9.55419 5.42919 8.9375 6.1875 8.9375C6.94581 8.9375 7.5625 9.55419 7.5625 10.3125ZM17.1875 10.3125C17.1875 11.0708 16.5708 11.6875 15.8125 11.6875C15.0542 11.6875 14.4375 11.0708 14.4375 10.3125C14.4375 9.55419 15.0542 8.9375 15.8125 8.9375C16.5708 8.9375 17.1875 9.55419 17.1875 10.3125ZM13.4441 12.4905C11.8449 11.4242 10.1558 11.4242 8.55663 12.4905C8.44042 12.5678 8.35054 12.6787 8.29896 12.8084C8.24737 12.9381 8.23653 13.0805 8.26788 13.2165C8.62125 14.7572 8.94231 15.5822 10.5421 17.0122C10.6671 17.1249 10.8293 17.1876 10.9976 17.1882C11.1659 17.1888 11.3286 17.1274 11.4544 17.0156C13.0515 15.6069 13.3753 14.7758 13.7321 13.2165C13.7634 13.0806 13.7527 12.9383 13.7012 12.8086C13.6498 12.6789 13.5601 12.568 13.4441 12.4905Z" fill="white"/>
</svg>
