<svg width="72" height="75" viewBox="0 0 72 75" fill="none" xmlns="http://www.w3.org/2000/svg">
<path d="M65.5591 34.9481L61.0391 33.2831C60.774 33.1875 60.5046 33.1049 60.2315 33.0368C60.0888 31.9276 59.8495 30.8506 59.5285 29.8079C56.2336 32.1747 52.6187 33.9936 48.7943 35.213L48.7764 35.3319L44.8111 36.7769C43.4067 37.2794 42.2951 38.0304 41.4531 38.9692C40.6006 38.5527 39.8847 37.9038 39.3821 37.1021C38.3773 37.1959 37.3626 37.2367 36.3425 37.2395C35.5562 37.2412 34.7727 37.2206 34.0027 37.121C34.0275 40.5651 34.4284 43.9554 35.186 47.2477C36.9738 47.5565 38.444 48.8011 39.0988 50.4674C39.183 50.4696 39.2672 50.4657 39.3514 50.4576V54.7673L38.9216 54.798C38.6966 55.2657 38.401 55.69 38.0487 56.0585C38.4831 57.1339 38.9803 58.1831 39.5317 59.2066C40.047 62.858 41.7627 65.5128 44.9465 68.1396C41.259 69.6356 37.229 70.4421 33.013 70.4421C14.9806 70.4421 0.345825 55.6771 0.345825 37.4839C0.345825 19.2909 14.9806 4.52588 33.013 4.52588C50.2024 4.52588 64.3013 17.934 65.5591 34.9481ZM22.5612 63.2492C25.7812 64.5968 29.3124 65.3333 33.013 65.3333C34.6564 65.3333 36.2665 65.1882 37.8222 64.883C36.3481 62.5831 35.0892 60.1722 34.0534 57.6706C31.8832 57.5782 30.0682 56.1846 29.3694 54.235C26.1673 53.8004 23.0083 53.0383 19.9347 51.9766C20.3071 55.8442 21.1929 59.6226 22.5612 63.2492ZM17.0618 60.178C16.1904 56.9065 15.66 53.5817 15.486 50.2232C12.3445 48.8401 9.32334 47.1259 6.48137 45.0737C8.19195 51.2607 11.9883 56.5673 17.0618 60.178ZM20.5238 36.7601C19.8695 40.1809 19.5799 43.699 19.6972 47.2655C22.9336 48.5306 26.2854 49.4191 29.6891 49.9072C30.0194 49.2988 30.4663 48.7637 31.0013 48.3333C30.1377 44.5424 29.693 40.6328 29.6852 36.6566C27.492 36.3587 25.3551 35.8326 23.2862 35.128C22.5705 35.9431 21.6083 36.5275 20.5238 36.7601ZM5.41527 37.4839L5.4804 38.784C8.53492 41.4412 11.8659 43.6322 15.381 45.347C15.4113 42.1205 15.7364 38.9328 16.347 35.82C15.0687 34.8618 14.2431 33.3273 14.2431 31.6118C14.2431 31.3452 14.2632 31.083 14.3081 30.8288C12.0123 29.4382 9.88248 27.7761 7.95732 25.8693C6.31664 29.3949 5.41527 33.3341 5.41527 37.4839ZM34.1074 32.8418C34.8479 32.8889 35.5934 32.9098 36.3425 32.908C37.1625 32.9054 37.9785 32.8756 38.7845 32.7928C38.9997 32.0671 39.3719 31.4082 39.8657 30.8577C39.1834 28.0553 38.8242 25.1473 38.7959 22.1841C38.7646 19.1966 39.0634 16.2678 39.6936 13.4204C36.4902 19.3756 34.5959 25.9711 34.1074 32.8418ZM23.1031 27.9072C23.9084 28.7199 24.4526 29.7983 24.5893 30.9993C26.2931 31.5809 28.0486 32.0296 29.8422 32.3393C30.437 24.4111 32.7814 16.7601 36.7138 9.91416C36.3496 9.83377 35.9738 9.79062 35.5925 9.76627C30.0598 14.837 25.8065 21.0472 23.1031 27.9072ZM43.0894 22.158C43.114 24.5283 43.3741 26.8545 43.8551 29.1087C45.4029 29.1361 46.7896 29.8697 47.7118 31.0019C51.3876 29.795 54.8337 27.9604 57.9225 25.5513C55.1606 19.6231 50.3654 14.8569 44.4402 12.1579C43.5032 15.3963 43.0499 18.7745 43.0894 22.158ZM10.1458 21.8977C12.1118 23.9356 14.2986 25.7123 16.6559 27.2054C17.366 26.7432 18.1965 26.4533 19.0903 26.3952C21.4496 20.3385 24.9252 14.7448 29.3612 9.90682C21.3693 10.9475 14.4603 15.4655 10.1458 21.8977Z" fill="white"/>
<path d="M71.5023 56.679V45.0069C71.5023 43.0339 70.8155 41.8597 68.8421 41.0194C67.0901 40.2677 61.1755 38.2978 59.7057 37.7171C58.3592 37.2098 57.0789 37.2244 55.8993 37.6123C54.17 38.225 48.2815 40.2677 46.5181 41.0194C44.5505 41.854 43.8838 43.0339 43.8838 45.0069V56.679C43.8838 62.7355 47.3998 65.0979 56.3535 70.2009C57.2389 70.7204 58.2884 70.6158 59.0328 70.2009C67.975 65.0692 71.5023 62.7355 71.5023 56.679ZM57.6899 65.646C57.4483 65.6721 57.1547 65.6142 56.8557 65.4022C49.9489 61.306 48.2828 60.3056 48.2828 56.1333V46.3306C48.2828 45.5238 48.5762 45.074 49.451 44.7518C51.8032 43.9017 54.4053 42.9107 56.5355 42.0856C56.9688 41.9407 57.3451 41.8858 57.6899 41.912V65.646Z" fill="white"/>
</svg>
