<svg width="26" height="27" viewBox="0 0 26 27" fill="none" xmlns="http://www.w3.org/2000/svg">
<g clip-path="url(#clip0_19058_11965)">
<path d="M2.19592 7.59752C5.27022 10.9638 9.6676 12.9128 14.3237 12.9025C18.03 12.8921 21.5588 11.6352 24.4119 9.33411L23.604 7.74578C21.0298 9.96914 17.7683 11.1838 14.3237 11.1941C9.88031 11.2044 5.74666 9.23248 2.9867 5.83777L2.19592 7.59752ZM0.824505 14.7491C7.38636 20.3885 16.801 21.4353 24.381 17.4318L24.3318 15.4903C17.0067 19.8263 7.5726 18.7647 1.26771 12.8406L0.824505 14.7491ZM7.1002 23.4057L9.11943 23.8594C8.21968 21.7587 7.7372 19.5174 7.70625 17.2178C7.41731 11.0269 10.1284 5.15269 14.9333 1.28861L13.13 0.571068C8.36742 4.7563 5.72148 10.8579 6.0001 17.2385C6.02073 19.3335 6.397 21.3988 7.1002 23.4057ZM15.4634 24.6629L17.0552 23.9544C14.677 20.6435 13.3822 16.7024 13.3822 12.5897C13.3822 8.69986 14.5216 4.97954 16.6619 1.82419L14.998 1.23677C12.8303 4.61384 11.6715 8.54109 11.6715 12.5897C11.6715 16.9539 12.9961 21.1211 15.4634 24.6629ZM22.7984 20.0133L23.9514 18.7151C19.705 16.3113 17.06 11.8736 17.0084 6.95423C16.9878 5.20378 17.3046 3.45685 17.9475 1.83249L16.3007 1.36739C15.6156 3.14502 15.2793 5.02332 15.3 6.96455C15.3516 12.3513 18.2034 17.2793 22.7984 20.0133ZM7.60759 12.7583C8.73611 12.7583 9.66228 11.8217 9.66228 10.6829C9.66228 9.5463 8.73611 8.61781 7.60759 8.61781C6.46068 8.61781 5.52995 9.5463 5.52995 10.6829C5.52995 11.8217 6.46068 12.7583 7.60759 12.7583ZM17.272 13.7982C18.3925 13.7982 19.3128 12.8801 19.3128 11.7345C19.3128 10.6116 18.3925 9.69355 17.272 9.69355C16.1263 9.69355 15.2081 10.6116 15.2081 11.7345C15.2081 12.8801 16.1263 13.7982 17.272 13.7982ZM13.5105 20.9654C14.6539 20.9654 15.5698 20.0472 15.5698 18.8936C15.5698 17.7479 14.6494 16.8172 13.5105 16.8172C12.3523 16.8172 11.4216 17.7479 11.4216 18.8936C11.4216 20.0472 12.3523 20.9654 13.5105 20.9654ZM12.9988 25.9978C20.1766 25.9978 26 20.1744 26 12.9988C26 5.82342 20.1766 0 12.9988 0C5.82342 0 0 5.82342 0 12.9988C0 20.1744 5.82342 25.9978 12.9988 25.9978ZM12.9988 23.9828C6.93711 23.9828 2.01722 19.0606 2.01722 12.9988C2.01722 6.93711 6.93711 2.01495 12.9988 2.01495C19.0629 2.01495 23.9828 6.93711 23.9828 12.9988C23.9828 19.0606 19.0629 23.9828 12.9988 23.9828Z" fill="white"/>
</g>
<defs>
<clipPath id="clip0_19058_11965">
<rect width="26" height="26.0103" fill="white"/>
</clipPath>
</defs>
</svg>
