<svg width="30" height="30" viewBox="0 0 30 30" fill="none" xmlns="http://www.w3.org/2000/svg">
<g clip-path="url(#clip0_19035_11886)">
<path d="M16.8599 22.7553C16.8599 23.1185 16.8864 23.4758 16.946 23.8223H0.90025C0.324841 23.8223 -0.147217 23.3708 -0.147217 22.7574C-0.147217 22.1529 0.324841 21.6924 0.90025 21.6924H16.9463C16.8865 22.0378 16.8599 22.3936 16.8599 22.7553Z" fill="white"/>
<path d="M23.2496 4.26843V15.5591C21.4395 15.7374 19.8203 16.6287 18.6704 17.9563V4.26843C18.6704 3.59125 19.088 3.18164 19.7521 3.18164H22.1522C22.8252 3.18164 23.2496 3.59125 23.2496 4.26843Z" fill="white"/>
<path d="M17.3739 7.389V18.7599C17.3739 19.4351 16.9476 19.8467 16.2766 19.8467H13.8726C13.2084 19.8467 12.7859 19.4351 12.7859 18.7599V7.389C12.7859 6.71183 13.2084 6.30225 13.8726 6.30225H16.2766C16.9476 6.30225 17.3739 6.71183 17.3739 7.389Z" fill="white"/>
<path d="M11.4992 10.5094V18.7598C11.4992 19.435 11.0727 19.8465 10.4105 19.8465H7.99966C7.33744 19.8465 6.91992 19.435 6.91992 18.7598V10.5094C6.91992 9.85229 7.33744 9.43164 7.99966 9.43164H10.4105C11.0727 9.43164 11.4992 9.85229 11.4992 10.5094Z" fill="white"/>
<path d="M5.61381 13.6393V18.7601C5.61381 19.4353 5.1874 19.8468 4.52525 19.8468H2.12321C1.45217 19.8468 1.02576 19.4353 1.02576 18.7601V13.6393C1.02576 12.9641 1.45217 12.5435 2.12321 12.5435H4.52525C5.1874 12.5435 5.61381 12.9641 5.61381 13.6393Z" fill="white"/>
<path d="M29.4707 22.7552C29.4707 25.859 26.9366 28.4334 23.929 28.4334C20.8969 28.4334 18.3875 25.8771 18.3875 22.7552C18.3875 19.6495 20.8969 17.0811 23.929 17.0811C26.972 17.0811 29.4707 19.6495 29.4707 22.7552ZM23.2417 19.5712V22.1616H21.3694C20.9529 22.1616 20.6077 22.5062 20.6077 22.9218C20.6077 23.3484 20.9441 23.6909 21.3694 23.6909H23.9925C24.4179 23.6909 24.7435 23.3574 24.7435 22.9218V19.5712C24.7435 19.1465 24.4071 18.8201 23.9925 18.8201C23.578 18.8201 23.2417 19.1465 23.2417 19.5712Z" fill="white"/>
</g>
<defs>
<clipPath id="clip0_19035_11886">
<rect width="30" height="30" fill="white"/>
</clipPath>
</defs>
</svg>
