<svg width="96" height="97" viewBox="0 0 96 97" fill="none" xmlns="http://www.w3.org/2000/svg">
<g clip-path="url(#clip0_19174_10828)">
<path d="M96 47.9957C96 74.4518 74.4982 95.9917 47.9957 95.9917C21.54 95.9917 0 74.4518 0 47.9957C0 21.5019 21.54 0 47.9957 0C74.4982 0 96 21.5019 96 47.9957ZM30.883 29.9723C25.9048 34.5053 22.972 41.2232 22.972 48.0043C22.972 61.6564 34.3436 73.0365 48.0341 73.0365C61.7326 73.0365 73.1044 61.6564 73.1044 48.0043C73.1044 41.2613 70.1716 34.5815 65.2313 29.9723C61.6396 26.4791 56.5807 31.4982 60.2319 35.101C63.7528 38.4519 65.7778 43.0167 65.8158 48.0043C65.8158 57.8799 57.9094 65.786 48.0341 65.786C38.1667 65.786 30.2985 57.8799 30.2985 48.0043C30.2985 43.0167 32.2853 38.4519 35.8445 35.063C39.4955 31.4517 34.4365 26.441 30.883 29.9723ZM44.4396 25.3584V45.6282C44.4396 47.8092 45.9244 49.3406 48.0341 49.3406C50.1517 49.3406 51.6749 47.8092 51.6749 45.6282V25.3584C51.6749 23.1392 50.1517 21.5994 48.0341 21.5994C45.9244 21.5994 44.4396 23.1392 44.4396 25.3584Z" fill="white"/>
</g>
<defs>
<clipPath id="clip0_19174_10828">
<rect width="96" height="96.0381" fill="white"/>
</clipPath>
</defs>
</svg>
