<svg width="27" height="21" viewBox="0 0 27 21" fill="none" xmlns="http://www.w3.org/2000/svg">
<g clip-path="url(#clip0_19176_10881)">
<path d="M1.79756 8.93107C2.05417 9.19897 2.42841 9.19676 2.67343 8.91637C5.53657 5.65574 9.28832 3.93317 13.5 3.93317C17.737 3.93317 21.5098 5.66595 24.3519 8.93107C24.5874 9.18426 24.948 9.17185 25.2025 8.90396L26.8234 7.15894C27.0547 6.91243 27.0494 6.59148 26.8623 6.35518C24.0827 2.6618 18.8916 0.012207 13.5 0.012207C8.11784 0.012207 2.9078 2.6618 0.13776 6.35518C-0.0493636 6.59148 -0.0451952 6.91243 0.176667 7.15894L1.79756 8.93107Z" fill="white"/>
<path d="M6.63642 14.1172C6.91826 14.4055 7.27676 14.3704 7.53545 14.0652C8.95207 12.4071 11.2134 11.2376 13.5 11.2478C15.812 11.2376 18.0795 12.4445 19.5151 14.107C19.7507 14.3976 20.0818 14.3806 20.3636 14.107L22.1835 12.1874C22.3938 11.9637 22.4211 11.6539 22.2244 11.4051C20.426 9.06375 17.1254 7.35791 13.5 7.35791C9.87473 7.35791 6.5762 9.06375 4.77559 11.4051C4.57897 11.6539 4.59681 11.9432 4.81659 12.1874L6.63642 14.1172Z" fill="white"/>
<path d="M13.5022 20.9999C13.7819 20.9999 14.0248 20.8619 14.4889 20.3776L17.3331 17.4397C17.536 17.2238 17.5843 16.8983 17.3952 16.6452C16.5946 15.5433 15.1348 14.6479 13.5022 14.6479C11.8273 14.6479 10.3509 15.5829 9.54819 16.74C9.41364 16.9639 9.47459 17.2305 9.67862 17.4397L12.5153 20.3776C12.9815 20.8517 13.2245 20.9999 13.5022 20.9999Z" fill="white"/>
</g>
<defs>
<clipPath id="clip0_19176_10881">
<rect width="27" height="21" fill="white"/>
</clipPath>
</defs>
</svg>
